<svg id="Capa_1" enable-background="new 0 0 512 512" height="512" viewBox="0 0 512 512" width="512" xmlns="http://www.w3.org/2000/svg" xmlns:xlink="http://www.w3.org/1999/xlink"><linearGradient id="SVGID_1_" gradientUnits="userSpaceOnUse" x1="74.981" x2="437.019" y1="74.981" y2="437.019"><stop offset="0" stop-color="#abd5ed"/><stop offset="1" stop-color="#97bedb"/></linearGradient><g><circle cx="256" cy="256" fill="url(#SVGID_1_)" r="256"/><g><path d="m256 60-48.797 98 48.797 98 103.801-34.792 34.792-103.801c-35.469-35.469-84.469-57.407-138.593-57.407z" fill="#ffe278"/><path d="m256 60c-50.161 0-100.322 19.136-138.593 57.407l34.792 103.801 103.801 34.792z" fill="#b0d16f"/><path d="m117.407 117.407c-35.469 35.469-57.407 84.469-57.407 138.593l98 48.797 98-48.797z" fill="#45c5ff"/><path d="m60 256c0 50.161 19.136 100.322 57.407 138.593l103.801-34.792 34.792-103.801z" fill="#0ca8ed"/><path d="m117.407 394.593c35.469 35.469 84.469 57.407 138.593 57.407l48.797-98-48.797-98z" fill="#1365c2"/><path d="m256 452c50.161 0 100.322-19.136 138.593-57.407l-34.792-103.801-103.801-34.792z" fill="#f71e78"/><path d="m394.593 394.593c35.469-35.469 57.407-84.469 57.407-138.593l-98-48.797-98 48.797z" fill="#ff776b"/><path d="m394.593 117.407-138.593 138.593h196c0-50.161-19.136-100.322-57.407-138.593z" fill="#ffb54c"/></g></g></svg>