<svg id="Capa_1" enable-background="new 0 0 512 512" height="512" viewBox="0 0 512 512" width="512" xmlns="http://www.w3.org/2000/svg"><g><g><path d="m512 269.76v-27.521c0-4.07-2.942-7.543-6.957-8.212l-26.179-4.363c-3.554-.592-6.311-3.407-6.855-6.969-2.435-15.924-6.587-31.283-12.264-45.881-1.306-3.358-.327-7.17 2.454-9.46l20.465-16.848c3.142-2.587 3.953-7.066 1.919-10.59l-13.761-23.834c-2.035-3.524-6.319-5.061-10.131-3.633l-24.883 9.322c-3.37 1.262-7.158.208-9.413-2.597-9.943-12.367-21.204-23.627-33.57-33.57-2.804-2.255-3.859-6.043-2.597-9.413l9.322-24.883c1.428-3.811-.109-8.096-3.633-10.131l-23.834-13.761c-3.524-2.035-8.003-1.223-10.59 1.919l-16.848 20.465c-2.29 2.781-6.102 3.76-9.46 2.454-14.598-5.677-29.957-9.83-45.881-12.264-3.562-.545-6.376-3.301-6.969-6.855l-4.363-26.179c-.669-4.014-4.142-6.956-8.212-6.956h-27.52c-4.07 0-7.543 2.942-8.212 6.957l-4.363 26.179c-.592 3.554-3.407 6.311-6.969 6.855-15.925 2.435-31.283 6.587-45.881 12.264-3.358 1.306-7.17.327-9.46-2.454l-16.848-20.465c-2.587-3.142-7.066-3.953-10.59-1.919l-23.834 13.761c-3.524 2.035-5.061 6.319-3.633 10.131l9.322 24.883c1.262 3.37.208 7.158-2.597 9.413-12.367 9.943-23.627 21.203-33.57 33.57-2.255 2.804-6.043 3.859-9.413 2.597l-24.883-9.322c-3.811-1.428-8.096.109-10.131 3.633l-13.761 23.834c-2.035 3.524-1.223 8.003 1.919 10.59l20.465 16.848c2.781 2.29 3.76 6.102 2.454 9.46-5.677 14.598-9.83 29.957-12.265 45.881-.545 3.562-3.301 6.376-6.855 6.969l-26.179 4.363c-4.014.669-6.956 4.142-6.956 8.211v27.521c0 4.07 2.942 7.543 6.957 8.212l26.179 4.363c3.554.592 6.311 3.407 6.855 6.969 2.435 15.924 6.587 31.283 12.265 45.881 1.306 3.358.327 7.17-2.454 9.46l-20.465 16.848c-3.142 2.587-3.953 7.066-1.919 10.59l13.761 23.834c2.035 3.524 6.319 5.061 10.131 3.633l24.883-9.322c3.37-1.262 7.158-.208 9.413 2.597 9.943 12.367 21.204 23.627 33.57 33.57 2.805 2.255 3.859 6.043 2.597 9.413l-9.322 24.883c-1.428 3.811.109 8.096 3.633 10.13l23.834 13.76c3.524 2.035 8.003 1.223 10.59-1.919l16.848-20.465c2.29-2.781 6.102-3.76 9.46-2.454 14.598 5.677 29.957 9.83 45.881 12.264 3.562.545 6.376 3.301 6.969 6.855l4.363 26.179c.669 4.014 4.142 6.957 8.212 6.957h27.521c4.07 0 7.543-2.942 8.212-6.957l4.363-26.179c.592-3.554 3.407-6.311 6.969-6.855 15.925-2.435 31.283-6.587 45.881-12.264 3.358-1.306 7.17-.327 9.46 2.454l16.848 20.465c2.587 3.142 7.066 3.953 10.59 1.919l23.834-13.761c3.524-2.035 5.061-6.319 3.633-10.131l-9.322-24.883c-1.262-3.37-.208-7.158 2.597-9.413 12.367-9.943 23.627-21.204 33.57-33.57 2.255-2.804 6.043-3.859 9.413-2.597l24.883 9.322c3.811 1.428 8.096-.109 10.131-3.633l13.761-23.834c2.035-3.524 1.223-8.003-1.919-10.59l-20.465-16.848c-2.781-2.29-3.76-6.102-2.454-9.46 5.677-14.598 9.83-29.957 12.264-45.881.545-3.562 3.301-6.376 6.855-6.969l26.179-4.363c4.013-.667 6.955-4.14 6.955-8.21zm-70.764-13.76c0 102.139-83.097 185.236-185.236 185.236s-185.236-83.097-185.236-185.236 83.097-185.236 185.236-185.236 185.236 83.097 185.236 185.236z" fill="#c7d1db"/><g><path d="m41.005 395.618.173.299c1.654 2.865 4.796 4.417 7.961 4.13-2.739-1.432-5.452-2.906-8.134-4.429z" fill="#f2cf64"/><path d="m505.043 234.028-26.179-4.363c-3.554-.592-6.311-3.407-6.855-6.969-2.435-15.925-6.587-31.283-12.264-45.881-1.306-3.358-.327-7.17 2.454-9.46l20.465-16.848c3.142-2.587 3.954-7.066 1.919-10.59l-13.761-23.834c-2.035-3.525-6.319-5.061-10.13-3.634l-22.642 8.482c2.093 13.497 3.186 27.326 3.186 41.41 0 17.522-1.701 34.644-4.91 51.228 3.207 13.631 4.91 27.835 4.91 42.43 0 102.139-83.097 185.236-185.236 185.236-22.557 0-44.182-4.059-64.192-11.474-6.163.424-12.378.656-18.649.656-19.317 0-38.15-2.061-56.308-5.943.774.64 1.54 1.291 2.323 1.92 2.804 2.255 3.859 6.043 2.597 9.413l-9.322 24.884c-1.428 3.811.109 8.096 3.634 10.13l23.834 13.761c3.524 2.035 8.003 1.223 10.59-1.919l16.848-20.465c2.29-2.781 6.102-3.76 9.46-2.454 14.598 5.677 29.957 9.83 45.881 12.264 3.562.545 6.376 3.301 6.969 6.855l4.363 26.179c.669 4.014 4.142 6.957 8.212 6.957h27.521c4.07 0 7.543-2.942 8.212-6.957l4.363-26.179c.592-3.554 3.407-6.311 6.969-6.855 15.925-2.435 31.283-6.587 45.881-12.264 3.358-1.306 7.17-.327 9.46 2.454l16.848 20.465c2.587 3.142 7.066 3.954 10.59 1.919l23.834-13.761c3.525-2.035 5.061-6.319 3.634-10.13l-9.322-24.883c-1.262-3.37-.208-7.158 2.597-9.413 12.367-9.943 23.627-21.204 33.57-33.57 2.255-2.804 6.043-3.859 9.413-2.597l24.883 9.322c3.811 1.428 8.096-.109 10.13-3.634l13.761-23.834c2.035-3.525 1.223-8.004-1.919-10.59l-20.465-16.848c-2.781-2.29-3.76-6.102-2.454-9.46 5.677-14.598 9.83-29.957 12.264-45.881.545-3.562 3.301-6.376 6.855-6.969l26.179-4.363c4.014-.669 6.957-4.142 6.957-8.212v-27.519c-.001-4.07-2.943-7.543-6.958-8.212z" fill="#b8c2cc"/></g></g><circle cx="256" cy="256" fill="#b6e446" r="135.285"/><path d="m327.604 141.209c12.982 20.768 20.493 45.307 20.493 71.604 0 74.716-60.569 135.285-135.285 135.285-26.297 0-50.836-7.511-71.604-20.493 23.903 38.239 66.373 63.68 114.791 63.68 74.716 0 135.285-60.569 135.285-135.285.001-48.419-25.441-90.888-63.68-114.791z" fill="#aad541"/><g><g><path d="m234.146 334.049c-6.392 0-12.784-2.439-17.661-7.315l-40.041-40.041c-9.754-9.754-9.754-25.568 0-35.321s25.567-9.753 35.321 0l22.38 22.381 66.632-66.633c9.754-9.753 25.567-9.753 35.321 0 9.754 9.754 9.754 25.568 0 35.321l-84.293 84.293c-4.875 4.876-11.267 7.315-17.659 7.315z" fill="#d3eefd"/></g></g></g></svg>