<svg id="Capa_1" enable-background="new 0 0 512 512" height="512" viewBox="0 0 512 512" width="512" xmlns="http://www.w3.org/2000/svg"><g><g><path d="m256 363.5 18.442 86.67-18.442 61.83h-129c-16.57 0-30-13.43-30-30v-93.67z" fill="#5c7099"/><path d="m415 388.33v93.67c0 16.57-13.43 30-30 30h-129v-148.5z" fill="#404a80"/><path d="m256 0 18.442 249.54-18.442 138.79h-159v-358.33c0-16.57 13.43-30 30-30z" fill="#d7e8ff"/><path d="m415 30v358.33h-159v-388.33h129c16.57 0 30 13.43 30 30z" fill="#adcfff"/><path d="m256 435.17 6.73 15-6.73 15h-21.5c-8.29 0-15-6.72-15-15 0-8.29 6.71-15 15-15z" fill="#404a80"/><g><path d="m292.5 450.17c0 8.28-6.72 15-15 15h-21.5v-30h21.5c8.28 0 15 6.71 15 15z" fill="#1f2859"/></g></g><path d="m265.54 206.13-9.54 94.79h-85.54c-11.046 0-20-8.954-20-20v-171.08c0-11.046 8.954-20 20-20h85.54z" fill="#fc6"/><path d="m361.54 109.84v171.08c0 11.046-8.954 20-20 20h-85.54v-211.08h85.54c11.046 0 20 8.954 20 20z" fill="#ffa64d"/><path d="m256 89.84 9.54 46.008-9.54 33.842c-1.32 0-2.64.35-3.82 1.07l-16.32 10.01c-4.86 2.98-11.1-.52-11.1-6.22v-84.71z" fill="#5c7099"/><path d="m287.24 89.84v84.71c0 5.7-6.24 9.2-11.1 6.22l-16.32-10.01c-1.18-.72-2.5-1.07-3.82-1.07v-79.85z" fill="#404a80"/></g></svg>